OpenSim_Sub03_CSBaseline_LCS.mot
version=1
nRows=40
nColumns=11
inDegrees=no
endheader
time	Bot_Shank	2nd_Bot_Shank	2nd_Top_Shank	Top_Shank	Bot_Thigh	Med_Thigh	Top_Thigh	BNOx	BNOy	BNOZ
46.44000000	1282.09151197	1249.28672544	625.55080135	994.25837828	1136.67359553	955.58398226	958.69463619	185.48866976	-65.32905845	-152.30370626
46.45000000	1282.95272494	1249.64052109	651.07088669	992.24294817	1135.12936374	954.05583456	957.60479657	184.18709328	-64.97633986	-150.86036065
46.46000000	1283.91772418	1250.09564046	679.31726380	990.06793411	1133.46467723	952.41941040	956.44769244	182.81030261	-64.58926010	-149.22032276
46.47000000	1284.96983985	1250.64716800	709.88641555	987.77347023	1131.71460862	950.70845428	955.24494942	181.36012144	-64.16668827	-147.40593688
46.48000000	1286.09240209	1251.29018818	742.37482486	985.39969066	1129.91423055	948.95671069	954.01819313	179.83837347	-63.70749346	-145.43954726
46.49000000	1287.26874108	1252.01978544	776.37897463	982.98672953	1128.09861566	947.19792413	952.78904919	178.24688238	-63.21054476	-143.34349816
46.50000000	1288.48218696	1252.83104423	811.49534776	980.57472097	1126.30283658	945.46583909	951.57914321	176.58747188	-62.67471127	-141.14013387
46.51000000	1289.71606989	1253.71904901	847.32042714	978.20379913	1124.56196595	943.79420008	950.41010080	174.86196565	-62.09886209	-138.85179864
46.52000000	1290.95372004	1254.67888423	883.45069567	975.91409812	1122.91107641	942.21675159	949.30354760	173.07218739	-61.48186630	-136.50083673
46.53000000	1292.17846756	1255.70563435	919.48263626	973.74575209	1121.38524058	940.76723812	948.28110921	171.21996079	-60.82259300	-134.10959243
46.54000000	1293.37364261	1256.79438380	955.01273181	971.73889516	1120.01953111	939.47940417	947.36441125	169.30710955	-60.11991130	-131.70040998
46.55000000	1294.52257535	1257.94021706	989.63746522	969.93366148	1118.84902063	938.38699423	946.57507935	167.33545735	-59.37269027	-129.29563367
46.56000000	1295.60859593	1259.13821856	1022.95331938	968.37018517	1117.90878178	937.52375280	945.93473911	165.30682789	-58.57979902	-126.91760775
46.57000000	1296.61503452	1260.38347277	1054.55677720	967.08860036	1117.23388719	936.92342438	945.46501616	163.22304486	-57.74010665	-124.58867649
46.58000000	1297.52522127	1261.67106413	1084.04432157	966.12904119	1116.85940950	936.61975346	945.18753611	161.08593196	-56.85248224	-122.33118417
46.59000000	1298.32248634	1262.99607710	1111.01243540	965.53164179	1116.82042135	936.64648455	945.12392459	158.89731288	-55.91579488	-120.16747503
46.60000000	1298.99015989	1264.35359613	1135.05760159	965.33653629	1117.15199536	937.03736214	945.29580720	156.65901131	-54.92891369	-118.11989336
46.61000000	1299.51157207	1265.73870567	1155.77630303	965.58385883	1117.88920419	937.82613072	945.72480957	154.37285094	-53.89070774	-116.21078342
46.62000000	1299.87005305	1267.14649018	1172.76502264	966.31374354	1119.06712045	939.04653480	946.43255732	152.04065547	-52.80004613	-114.46248948
46.63000000	1300.04965333	1268.57161083	1185.63117194	967.56500314	1120.71907900	940.73061064	947.43964501	149.66469800	-51.65619462	-112.89672461
46.64000000	1300.06242709	1269.99227404	1194.40701353	969.32508071	1122.81085774	942.84398668	948.72658559	147.26472222	-50.47383895	-111.51066482
46.65000000	1299.95680628	1271.36531088	1199.67670652	971.51468831	1125.22047580	945.26602529	950.22182447	144.88316675	-49.28769598	-110.26961152
46.66000000	1299.78365400	1272.64612390	1202.06129420	974.05007828	1127.82008718	947.87032354	951.85032735	142.56398696	-48.13382128	-109.13673592
46.67000000	1299.59383340	1273.79011562	1202.18181984	976.84750294	1130.48184594	950.53047849	953.53705989	140.35113821	-47.04827044	-108.07520920
46.68000000	1299.43820758	1274.75268858	1200.65932675	979.82321462	1133.07790609	953.12008719	955.20698778	138.28857586	-46.06709902	-107.04820258
46.69000000	1299.36763968	1275.48924532	1198.11485821	982.89346564	1135.48042168	955.51274670	956.78507670	136.42025527	-45.22636260	-106.01888724
46.70000000	1299.43299282	1275.95518836	1195.16945750	985.97450833	1137.56154672	957.58205409	958.19629232	134.79013182	-44.56211676	-104.95043439
46.71000000	1299.68513011	1276.10592026	1192.44416791	988.98259502	1139.19343526	959.20160641	959.36560031	133.44216085	-44.11041706	-103.80601521
46.72000000	1300.17467732	1275.89800685	1190.55533163	991.83394444	1140.24956567	960.24632815	960.21866244	132.42019487	-43.90694184	-102.55118064
46.73000000	1300.93389444	1275.37802085	1189.75556500	994.44217681	1140.70588152	960.69384651	960.73499571	131.76012751	-43.95818079	-101.33560260
46.74000000	1301.96391025	1274.74510279	1189.68094377	996.71650763	1140.71201199	960.69587701	960.98540555	131.48436159	-44.22114688	-100.62105084
46.75000000	1303.26283801	1274.21317174	1189.90782235	998.56572575	1140.43441036	960.42099825	961.04954005	131.61399313	-44.64806053	-100.89952655
46.76000000	1304.82879096	1273.99614678	1190.01255510	999.89862001	1140.03952993	960.03778885	961.00704732	132.17011816	-45.19114212	-102.66303094
46.77000000	1306.64901840	1274.26706151	1189.64828925	1000.65264838	1139.67735235	959.69707110	960.93043630	133.16566062	-45.81087846	-106.19898295
46.78000000	1308.65200888	1274.97780917	1188.88352745	1000.92033362	1139.40876803	959.45362734	960.85360180	134.56934347	-46.51246747	-110.68826130
46.79000000	1310.74647529	1276.00585910	1187.92655846	1000.84638494	1139.26468404	959.32991805	960.79744322	136.33501402	-47.31615444	-114.93934325
46.80000000	1312.84111559	1277.22862458	1186.98577640	1000.57555085	1139.27598486	959.34837937	960.78285016	138.41650837	-48.24219597	-117.76042542
46.81000000	1314.84462777	1278.52351889	1186.26957537	1000.25257990	1139.47355499	959.53144740	960.83071222	140.76766261	-49.31084868	-117.95970445
46.82000000	1316.66570979	1279.76795530	1185.98634948	1000.02222059	1139.88827892	959.90155830	960.96191899	143.34231286	-50.54236918	-114.34537697
46.83000000	1318.22104407	1280.84988925	1186.31458671	1000.01272992	1140.54231050	960.47380511	961.19340849	146.09732717	-51.95230130	-105.88992174
